<svg width="1492" height="256" viewBox="0 0 1492 256" fill="none" xmlns="http://www.w3.org/2000/svg">
<path d="M339.117 200H374.408L386.543 161.035H443.32L455.455 200H490.746L434.748 39.3535H395.227L339.117 200ZM414.598 70.5254H415.266L435.527 135.875H394.336L414.598 70.5254Z" fill="#1890FF"/>
<path d="M504.895 238.965H537.403V179.627H538.071C544.528 193.766 557.999 202.449 575.032 202.449C604.868 202.449 623.349 179.07 623.349 140.328V140.217C623.349 101.363 604.868 78.207 574.587 78.207C557.665 78.207 544.64 87.002 538.183 101.475H537.403V80.6562H504.895V238.965ZM563.899 175.508C548.091 175.508 537.292 161.926 537.292 140.439V140.328C537.292 118.73 548.091 105.148 563.899 105.148C580.042 105.148 590.284 118.396 590.284 140.217V140.328C590.284 162.037 580.042 175.508 563.899 175.508Z" fill="#1890FF"/>
<path d="M640.726 238.965H673.234V179.627H673.902C680.359 193.766 693.83 202.449 710.863 202.449C740.699 202.449 759.18 179.07 759.18 140.328V140.217C759.18 101.363 740.699 78.207 710.418 78.207C693.496 78.207 680.471 87.002 674.014 101.475H673.234V80.6562H640.726V238.965ZM699.73 175.508C683.922 175.508 673.123 161.926 673.123 140.439V140.328C673.123 118.73 683.922 105.148 699.73 105.148C715.873 105.148 726.115 118.396 726.115 140.217V140.328C726.115 162.037 715.873 175.508 699.73 175.508Z" fill="#1890FF"/>
<path d="M780.075 200H810.022V91.3438H810.913L854.331 200H875.483L918.79 91.3438H919.792V200H949.739V39.3535H910.885L865.241 154.801H864.573L818.928 39.3535H780.075V200Z" fill="#333333"/>
<path d="M1007.19 201.893C1022.89 201.893 1035.58 194.434 1042.37 182.188H1043.04V200H1075.55V118.174C1075.55 94.127 1055.62 78.207 1024.78 78.207C993.279 78.207 974.353 94.0156 972.572 116.059L972.46 117.395H1002.18L1002.41 116.393C1003.97 108.711 1011.31 103.033 1023.45 103.033C1036.14 103.033 1043.04 109.602 1043.04 120.178V127.525L1013.54 129.307C983.927 131.199 967.117 143.891 967.117 165.6V165.822C967.117 186.863 983.259 201.893 1007.19 201.893ZM999.29 164.152V163.93C999.29 155.469 1005.86 150.125 1018.44 149.346L1043.04 147.787V156.359C1043.04 168.828 1032.35 178.18 1017.77 178.18C1006.53 178.18 999.29 172.947 999.29 164.152Z" fill="#333333"/>
<path d="M1146.14 202.449C1176.87 202.449 1198.36 187.086 1198.36 163.707V163.596C1198.36 146.006 1188.11 136.209 1163.18 130.977L1142.91 126.635C1130.89 124.074 1126.77 120.066 1126.77 113.943V113.832C1126.77 106.15 1133.79 101.141 1145.03 101.141C1157.05 101.141 1164.07 107.598 1165.18 116.17L1165.29 117.061H1195.24V115.947C1194.46 95.0176 1176.76 78.207 1145.03 78.207C1114.64 78.207 1095.04 92.9023 1095.04 115.613V115.725C1095.04 133.537 1106.73 145.115 1129.89 150.014L1150.15 154.244C1161.84 156.805 1165.85 160.479 1165.85 166.824V166.936C1165.85 174.617 1158.39 179.404 1146.14 179.404C1133.12 179.404 1126.1 173.949 1123.99 164.598L1123.77 163.596H1092.04L1092.15 164.598C1094.71 187.197 1113.08 202.449 1146.14 202.449Z" fill="#333333"/>
<path d="M1262.27 202.449C1269.06 202.449 1274.29 201.781 1277.97 201.225V177.4C1275.96 177.623 1273.85 177.957 1270.95 177.957C1261.16 177.957 1256.15 174.172 1256.15 163.039V105.148H1277.97V80.6562H1256.15V51.4883H1223.3V80.6562H1206.72V105.148H1223.3V166.602C1223.3 192.207 1235.77 202.449 1262.27 202.449Z" fill="#333333"/>
<path d="M1348.89 202.449C1382.96 202.449 1399.44 182.299 1403.11 164.709L1403.44 163.484H1373.61L1373.39 164.152C1371.05 170.832 1362.92 178.18 1349.56 178.18C1332.97 178.18 1322.62 167.047 1322.29 148.01H1404.45V137.99C1404.45 101.92 1382.51 78.207 1347.56 78.207C1312.6 78.207 1290.22 102.477 1290.22 140.439V140.551C1290.22 178.736 1312.38 202.449 1348.89 202.449ZM1348.11 102.477C1361.58 102.477 1371.27 111.049 1373.27 127.525H1322.62C1324.73 111.383 1334.75 102.477 1348.11 102.477Z" fill="#333333"/>
<path d="M1421.71 200H1454.22V133.203C1454.22 115.836 1463.57 106.262 1479.6 106.262C1484.28 106.262 1488.73 106.93 1491.4 108.043V79.4316C1488.95 78.7637 1485.61 78.207 1482.05 78.207C1468.14 78.207 1458.45 86.7793 1454.89 101.475H1454.22V80.6562H1421.71V200Z" fill="#333333"/>
<path d="M0 42.6668C0 19.1025 19.1025 0 42.6667 0H213.334C236.898 0 256 19.1025 256 42.6668V213.333C256 236.898 236.898 256 213.334 256H42.6667C19.1025 256 0 236.898 0 213.333V42.6668V42.6668Z" fill="#1890FF"/>
<path d="M92.6315 64C96.3916 64 100.115 64.7406 103.588 66.1795C107.062 67.6185 110.218 69.7274 112.877 72.3863C115.536 75.0448 117.645 78.2011 119.084 81.6749C120.523 85.1484 121.263 88.8718 121.263 92.6316V121.263H92.6315C85.0379 121.263 77.7556 118.247 72.3861 112.877C67.0166 107.508 64.0002 100.225 64.0002 92.6316C64.0002 85.038 67.0166 77.7554 72.3861 72.3863C77.7556 67.0168 85.0379 64 92.6315 64ZM92.6315 134.737H121.263V163.368C121.263 169.031 119.584 174.567 116.438 179.275C113.292 183.984 108.82 187.653 103.588 189.82C98.3568 191.988 92.5999 192.554 87.046 191.45C81.492 190.345 76.3903 187.618 72.3861 183.614C68.3819 179.61 65.6548 174.508 64.5501 168.954C63.4454 163.4 64.0125 157.643 66.1794 152.411C68.3466 147.18 72.0162 142.708 76.7246 139.562C81.4331 136.416 86.9688 134.737 92.6315 134.737ZM163.368 64C170.962 64 178.245 67.0168 183.614 72.3863C188.984 77.7554 192 85.038 192 92.6316C192 100.225 188.984 107.508 183.614 112.877C178.245 118.247 170.962 121.263 163.368 121.263H134.737V92.6316C134.737 85.038 137.754 77.7554 143.123 72.3863C148.492 67.0168 155.775 64 163.368 64ZM134.737 134.737H163.368C169.031 134.737 174.567 136.416 179.275 139.562C183.984 142.708 187.654 147.18 189.82 152.411C191.988 157.643 192.554 163.4 191.45 168.954C190.345 174.508 187.618 179.61 183.614 183.614C179.61 187.618 174.508 190.345 168.954 191.45C163.4 192.554 157.643 191.988 152.412 189.82C147.18 187.653 142.708 183.984 139.562 179.275C136.416 174.567 134.737 169.031 134.737 163.368V134.737Z" fill="white"/>
</svg>
